<svg width="24" height="24" viewBox="0 0 24 24" fill="none" xmlns="http://www.w3.org/2000/svg">
  <path stroke="#8e4dff" id="svg_6" d="m12.2534,2.7361c-5.94817,0 -10.77006,4.19892 -10.77006,9.37839c0,1.76997 0.57005,3.42347 1.55094,4.83537l-1.55094,3.94784l4.318,-1.28721c1.79936,1.17645 4.02879,1.88207 6.45206,1.88207c5.94818,0 10.77006,-4.19892 10.77006,-9.37807c0,-5.17947 -4.82188,-9.37839 -10.77006,-9.37839l0,0z" fill="none"/>
  <path stroke="#8e4dff" id="svg_7" d="m10.44662,15.7625c-2.96079,-1.95275 -4.01939,-3.18802 -4.02797,-4.70022c-0.00782,-1.37855 1.29896,-2.70906 2.65322,-2.70139c0.67625,0.00384 2.12686,0.51122 2.64053,0.9236c0.25882,0.20778 0.3814,0.18729 0.95763,-0.16006c1.56824,-0.94533 3.09964,-0.96517 4.09144,-0.05301c1.58511,1.45783 1.29652,3.19874 -0.82959,5.00453c-1.13036,0.96006 -3.59883,2.66327 -3.85989,2.66327c-0.07944,0 -0.81085,-0.43953 -1.62537,-0.97673l0,0z" fill="#8e4dff"/>
</svg>