<svg width="24" height="24" viewBox="0 0 24 24" fill="none" xmlns="http://www.w3.org/2000/svg">
  <path stroke="#8e4dff" id="svg_6" d="m12.2534,2.7361c-5.94817,0 -10.77006,4.19892 -10.77006,9.37839c0,1.76997 0.57005,3.42347 1.55094,4.83537l-1.55094,3.94784l4.318,-1.28721c1.79936,1.17645 4.02879,1.88207 6.45206,1.88207c5.94818,0 10.77006,-4.19892 10.77006,-9.37807c0,-5.17947 -4.82188,-9.37839 -10.77006,-9.37839l0,0z" fill="none"/>
  <path stroke="#8e4dff" id="svg_11" d="m12.44837,8.47197c3.2103,0 5.74331,3.48431 5.74331,3.48431s-2.53301,3.48476 -5.74331,3.48476c-2.45516,0 -5.74331,-3.48476 -5.74331,-3.48476s3.28815,-3.48431 5.74331,-3.48431zm0,5.65556c1.12697,0 2.04504,-0.97429 2.04504,-2.17125s-0.91808,-2.17125 -2.04504,-2.17125s-2.04504,0.97474 -2.04504,2.17125s0.91808,2.17125 2.04504,2.17125zm0,-3.43869c0.65899,0 1.19376,0.56732 1.19376,1.26743c0,0.70011 -0.53434,1.26743 -1.19376,1.26743c-0.65942,0 -1.19376,-0.56732 -1.19376,-1.26743c0,-0.69966 0.53434,-1.26743 1.19376,-1.26743z" fill="none"/>
</svg>